<?xml version="1.0" encoding="UTF-8" standalone="no"?>
<!DOCTYPE svg PUBLIC "-//W3C//DTD SVG 1.1//EN" "http://www.w3.org/Graphics/SVG/1.1/DTD/svg11.dtd">
<svg version="1.1" xmlns="http://www.w3.org/2000/svg" xmlns:xlink="http://www.w3.org/1999/xlink" preserveAspectRatio="xMidYMid meet" viewBox="0 0 640 640" width="32" height="32"><defs><path d="M600 20C611.05 20 620 28.95 620 40C620 156 620 484 620 600C620 611.05 611.05 620 600 620C484 620 156 620 40 620C28.95 620 20 611.05 20 600C20 484 20 156 20 40C20 28.95 28.95 20 40 20C156 20 484 20 600 20Z" id="e18qjN7cPD"></path><linearGradient id="gradienta2EcXL4Mw" gradientUnits="userSpaceOnUse" x1="612.87" y1="617.9" x2="23.08" y2="23.12"><stop style="stop-color: #260404;stop-opacity: 1" offset="0%"></stop><stop style="stop-color: #952323;stop-opacity: 1" offset="100%"></stop></linearGradient><path d="M121.22 86.26L157.22 86.26L157.22 122.26L121.22 122.26L121.22 86.26Z" id="a5VzDMEsAb"></path><path d="M181.22 86.26L217.22 86.26L217.22 122.26L181.22 122.26L181.22 86.26Z" id="a1Dy9DgleF"></path><path d="M240.29 86.26L276.29 86.26L276.29 122.26L240.29 122.26L240.29 86.26Z" id="bGqr1bw0D"></path><path d="M61.22 130.55L97.22 130.55L97.22 166.55L61.22 166.55L61.22 130.55Z" id="aWHQUrxzl"></path><path d="M61.22 194.26L97.22 194.26L97.22 230.26L61.22 230.26L61.22 194.26Z" id="aArczh8eo"></path><path d="M121.22 242.26L157.22 242.26L157.22 278.26L121.22 278.26L121.22 242.26Z" id="c1pWo9Y45r"></path><path d="M181.22 242.26L217.22 242.26L217.22 278.26L181.22 278.26L181.22 242.26Z" id="a267aIU2H"></path><path d="M241.22 290.26L277.22 290.26L277.22 326.26L241.22 326.26L241.22 290.26Z" id="b4219w7Z9l"></path><path d="M241.22 350.26L277.22 350.26L277.22 386.26L241.22 386.26L241.22 350.26Z" id="bC4cMXOdH"></path><path d="M181.22 398.26L217.22 398.26L217.22 434.26L181.22 434.26L181.22 398.26Z" id="i4VPr3vGOx"></path><path d="M121.22 398.26L157.22 398.26L157.22 434.26L121.22 434.26L121.22 398.26Z" id="b4a0xNvEwC"></path><path d="M61.22 398.26L97.22 398.26L97.22 434.26L61.22 434.26L61.22 398.26Z" id="d7JRhTh8u"></path><path d="M361.22 86.26L397.22 86.26L397.22 122.26L361.22 122.26L361.22 86.26Z" id="b2mqA6asfd"></path><path d="M361.22 242.26L397.22 242.26L397.22 278.26L361.22 278.26L361.22 242.26Z" id="asdPrCEHg"></path><path d="M398 290L362 290L362 326L398 326L398 290Z" id="abt2vSqVA"></path><path d="M397.22 350.26L361.22 350.26L361.22 386.26L397.22 386.26L397.22 350.26Z" id="gQSPkBumu"></path><path d="M361.22 398.26L397.22 398.26L397.22 434.26L361.22 434.26L361.22 398.26Z" id="a1UGzzJ9B6"></path><path d="M421.22 398.26L457.22 398.26L457.22 434.26L421.22 434.26L421.22 398.26Z" id="i2QzyzcIwD"></path><path d="M481.22 398.26L517.22 398.26L517.22 434.26L481.22 434.26L481.22 398.26Z" id="cjXOZLA5b"></path><path d="M541.22 398.26L577.22 398.26L577.22 434.26L541.22 434.26L541.22 398.26Z" id="ah5i0xsMK"></path><path d="M121.22 458.26L157.22 458.26L157.22 494.26L121.22 494.26L121.22 458.26Z" id="b2KUsGMrA"></path><path d="M61.22 518.26L97.22 518.26L97.22 554.26L61.22 554.26L61.22 518.26Z" id="c4wGthoP9x"></path><path d="M481.22 136.54L517.22 136.54L517.22 172.54L481.22 172.54L481.22 136.54Z" id="g1Baco2k69"></path><path d="M541.22 86.26L577.22 86.26L577.22 122.26L541.22 122.26L541.22 86.26Z" id="a51q4eV7g"></path><path d="M481.22 86.26L517.22 86.26L517.22 122.26L481.22 122.26L481.22 86.26Z" id="h5n7s7Q85D"></path><path d="M421.22 86.26L457.22 86.26L457.22 122.26L421.22 122.26L421.22 86.26Z" id="e2o8IHjDbM"></path><path d="M541.22 136.24L577.22 136.24L577.22 172.24L541.22 172.24L541.22 136.24Z" id="b6oTM10Rh"></path><path d="M541.22 194.26L577.22 194.26L577.22 230.26L541.22 230.26L541.22 194.26Z" id="e4hYnUYgP"></path><path d="M421.22 194.26L457.22 194.26L457.22 230.26L421.22 230.26L421.22 194.26Z" id="b5oCrfk93D"></path><path d="M301.22 290.26L337.22 290.26L337.22 326.26L301.22 326.26L301.22 290.26Z" id="aVQxPkIQl"></path><clipPath id="clipd2unXy3acK"><use xlink:href="#aVQxPkIQl" opacity="1"></use></clipPath><path d="M361.22 140.26L397.22 140.26L397.22 176.26L361.22 176.26L361.22 140.26Z" id="c13MiJ8EMF"></path><path d="M361.22 194.26L397.22 194.26L397.22 230.26L361.22 230.26L361.22 194.26Z" id="cd5YK1TdO"></path></defs><g><g><g><use xlink:href="#e18qjN7cPD" opacity="1" fill="url(#gradienta2EcXL4Mw)"></use><g><use xlink:href="#e18qjN7cPD" opacity="1" fill-opacity="0" stroke="#ffffff" stroke-width="1" stroke-opacity="0"></use></g></g><g><use xlink:href="#a5VzDMEsAb" opacity="1" fill="#ffffff" fill-opacity="0.85"></use></g><g><use xlink:href="#a1Dy9DgleF" opacity="1" fill="#ffffff" fill-opacity="0.85"></use></g><g><use xlink:href="#bGqr1bw0D" opacity="1" fill="#ffffff" fill-opacity="0.85"></use></g><g><use xlink:href="#aWHQUrxzl" opacity="1" fill="#ffffff" fill-opacity="0.85"></use></g><g><use xlink:href="#aArczh8eo" opacity="1" fill="#ffffff" fill-opacity="0.85"></use></g><g><use xlink:href="#c1pWo9Y45r" opacity="1" fill="#ffffff" fill-opacity="0.85"></use></g><g><use xlink:href="#a267aIU2H" opacity="1" fill="#ffffff" fill-opacity="0.85"></use></g><g><use xlink:href="#b4219w7Z9l" opacity="1" fill="#ffffff" fill-opacity="0.85"></use></g><g><use xlink:href="#bC4cMXOdH" opacity="1" fill="#ffffff" fill-opacity="0.85"></use></g><g><use xlink:href="#i4VPr3vGOx" opacity="1" fill="#ffffff" fill-opacity="0.85"></use></g><g><use xlink:href="#b4a0xNvEwC" opacity="1" fill="#ffffff" fill-opacity="0.85"></use></g><g><use xlink:href="#d7JRhTh8u" opacity="1" fill="#ffffff" fill-opacity="0.85"></use></g><g><use xlink:href="#b2mqA6asfd" opacity="1" fill="#edb1b1" fill-opacity="0.75"></use></g><g><use xlink:href="#asdPrCEHg" opacity="1" fill="#edb1b1" fill-opacity="0.75"></use></g><g><use xlink:href="#abt2vSqVA" opacity="1" fill="#edb1b1" fill-opacity="0.75"></use></g><g><use xlink:href="#gQSPkBumu" opacity="1" fill="#edb1b1" fill-opacity="0.75"></use></g><g><use xlink:href="#a1UGzzJ9B6" opacity="1" fill="#edb1b1" fill-opacity="0.75"></use></g><g><use xlink:href="#i2QzyzcIwD" opacity="1" fill="#edb1b1" fill-opacity="0.75"></use></g><g><use xlink:href="#cjXOZLA5b" opacity="1" fill="#edb1b1" fill-opacity="0.75"></use></g><g><use xlink:href="#ah5i0xsMK" opacity="1" fill="#edb1b1" fill-opacity="0.75"></use></g><g><use xlink:href="#b2KUsGMrA" opacity="1" fill="#9eeff7" fill-opacity="0.85"></use></g><g><use xlink:href="#c4wGthoP9x" opacity="1" fill="#9eeff7" fill-opacity="0.85"></use></g><g><use xlink:href="#g1Baco2k69" opacity="1" fill="#9eeff7" fill-opacity="0.85"></use></g><g><use xlink:href="#a51q4eV7g" opacity="1" fill="#9eeff7" fill-opacity="0.85"></use></g><g><use xlink:href="#h5n7s7Q85D" opacity="1" fill="#9eeff7" fill-opacity="0.85"></use></g><g><use xlink:href="#e2o8IHjDbM" opacity="1" fill="#9eeff7" fill-opacity="0.85"></use></g><g><use xlink:href="#b6oTM10Rh" opacity="1" fill="#9eeff7" fill-opacity="0.85"></use></g><g><use xlink:href="#e4hYnUYgP" opacity="1" fill="#9eeff7" fill-opacity="0.85"></use></g><g><use xlink:href="#b5oCrfk93D" opacity="1" fill="#9eeff7" fill-opacity="0.85"></use></g><g><use xlink:href="#aVQxPkIQl" opacity="1" fill="#ffffff" fill-opacity="0.15"></use><g clip-path="url(#clipd2unXy3acK)"><use xlink:href="#aVQxPkIQl" opacity="1" fill-opacity="0" stroke="#9eeff7" stroke-width="0" stroke-opacity="0.15"></use></g></g><g><use xlink:href="#c13MiJ8EMF" opacity="1" fill="#edb1b1" fill-opacity="0.75"></use></g><g><use xlink:href="#cd5YK1TdO" opacity="1" fill="#edb1b1" fill-opacity="0.75"></use></g></g></g></svg>